<?xml version="1.0" standalone="no"?>
<svg viewBox="0 0 200 200" xmlns="http://www.w3.org/2000/svg">
  <path fill="#FF6000" d="M42,-69.3C50.1,-60.2,49.4,-41.2,55.1,-26C60.8,-10.7,73,0.8,74.3,12.7C75.7,24.6,66.3,36.9,54,41.3C41.7,45.7,26.5,42.2,13.4,46.3C0.3,50.4,-10.7,62.1,-19.5,61.7C-28.3,61.2,-34.9,48.6,-44.8,38.3C-54.7,27.9,-67.8,19.8,-69.8,9.7C-71.8,-0.4,-62.8,-12.5,-57.8,-27.6C-52.8,-42.7,-51.8,-60.8,-42.8,-69.6C-33.8,-78.4,-16.9,-77.8,0,-77.9C17,-77.9,33.9,-78.5,42,-69.3Z" transform="translate(100 100)" />
</svg>
